<svg xmlns="http://www.w3.org/2000/svg" viewBox="0 0 24 24">
  <title>Logo</title>
  <defs>
    <linearGradient id="gradient-0" gradientUnits="userSpaceOnUse" x1="1" y1="2" x2="24" y2="2">
      <stop offset="0" stop-color="#fb923c" />
      <stop offset="1" stop-color="#ea580c" />
    </linearGradient>
    <filter id="filter-0">
      <feDropShadow dx="0.4" dy="0.4" stdDeviation="0.3" flood-color="#000000" flood-opacity="0.5"/>
    </filter>
  </defs>

  <g filter="url(#filter-0)">
    <polygon fill="#fed7aa" points="23 4 23 19 20 19 20 22 13 19 5 19 11 16 20 16 20 4 23 4" />
  </g>
  <g filter="url(#filter-0)">
    <path fill="url(#gradient-0)" d="M4,20.62V17H1V2H21V17H11.24ZM3,15H6v2.38L10.76,15H19V4H3Z" />
    <polygon fill="url(#gradient-0)" points="16 6 16 10.41 13.71 12.71 12.29 11.29 13.59 10 12 10 12 6 16 6" />
    <polygon fill="url(#gradient-0)" points="10 6 10 10.41 7.71 12.71 6.29 11.29 7.59 10 6 10 6 6 10 6" />
  </g>
</svg>
